<mxfile host="app.diagrams.net" modified="2023-07-23T03:22:47.919Z" agent="Mozilla/5.0 (Macintosh; Intel Mac OS X 10_15_7) AppleWebKit/537.36 (KHTML, like Gecko) Chrome/115.0.0.0 Safari/537.36" etag="cT3GCKuDid3y8F4w3DAs" version="21.6.5" type="github">
  <diagram id="07fea595-8f29-1299-0266-81d95cde20df" name="Page-1">
    <mxGraphModel dx="1166" dy="541" grid="1" gridSize="10" guides="1" tooltips="1" connect="1" arrows="1" fold="1" page="1" pageScale="1" pageWidth="1169" pageHeight="827" background="none" math="0" shadow="0">
      <root>
        <mxCell id="0" />
        <mxCell id="1" parent="0" />
        <mxCell id="170" value="&lt;font color=&quot;#23497d&quot;&gt;ML Problem&lt;/font&gt;" style="swimlane;whiteSpace=wrap;fillColor=none;swimlaneFillColor=#BAC8D3;fontColor=#143642;fontFamily=Tahoma;html=1;strokeColor=none;opacity=50;labelBackgroundColor=none;rounded=1;" parent="1" vertex="1">
          <mxGeometry x="270" y="91.5" width="160" height="650" as="geometry">
            <mxRectangle x="20" y="20" width="80" height="23" as="alternateBounds" />
          </mxGeometry>
        </mxCell>
        <mxCell id="171" value="Data Store" style="whiteSpace=wrap;shadow=0;fontColor=#143642;fontFamily=Helvetica;fontStyle=0;html=1;fontSize=12;plain-purple;strokeColor=none;fillColor=#FAE5C7;spacing=6;verticalAlign=middle;labelBackgroundColor=none;rounded=1;" parent="170" vertex="1">
          <mxGeometry x="20" y="60" width="120" height="60" as="geometry" />
        </mxCell>
        <mxCell id="172" value="Data Preparation" style="whiteSpace=wrap;strokeColor=none;fillColor=#FAE5C7;shadow=0;fontColor=#143642;fontFamily=Helvetica;fontStyle=0;html=1;fontSize=12;spacing=6;verticalAlign=middle;labelBackgroundColor=none;rounded=1;" parent="170" vertex="1">
          <mxGeometry x="20" y="375" width="120" height="60" as="geometry" />
        </mxCell>
        <mxCell id="173" value="Data Schemas" style="whiteSpace=wrap;strokeColor=none;fillColor=#FAE5C7;shadow=0;fontColor=#143642;fontFamily=Helvetica;fontStyle=0;html=1;fontSize=12;spacing=6;verticalAlign=middle;labelBackgroundColor=none;rounded=1;" parent="170" vertex="1">
          <mxGeometry x="20" y="485" width="120" height="60" as="geometry" />
        </mxCell>
        <mxCell id="174" value="" style="edgeStyle=segmentEdgeStyle;strokeColor=#A8201A;strokeWidth=3;html=1;endArrow=block;endFill=1;labelBackgroundColor=none;fontColor=default;" parent="170" source="172" target="173" edge="1">
          <mxGeometry width="100" height="100" relative="1" as="geometry">
            <mxPoint x="170" y="397.5" as="sourcePoint" />
            <mxPoint x="270" y="472.5" as="targetPoint" />
          </mxGeometry>
        </mxCell>
        <mxCell id="175" value="" style="edgeStyle=segmentEdgeStyle;strokeColor=#A8201A;strokeWidth=3;html=1;endArrow=block;endFill=1;labelBackgroundColor=none;fontColor=default;" parent="170" source="171" target="172" edge="1">
          <mxGeometry width="100" height="100" relative="1" as="geometry">
            <mxPoint x="160" y="110" as="sourcePoint" />
            <mxPoint x="260" y="185" as="targetPoint" />
          </mxGeometry>
        </mxCell>
        <mxCell id="187" value="&lt;font color=&quot;#23497d&quot;&gt;Finalizing Model&lt;/font&gt;" style="swimlane;whiteSpace=wrap;fillColor=none;swimlaneFillColor=#BAC8D3;fontColor=#143642;fontFamily=Tahoma;html=1;strokeColor=none;opacity=50;labelBackgroundColor=none;rounded=1;" parent="1" vertex="1">
          <mxGeometry x="590" y="86" width="160" height="650" as="geometry">
            <mxRectangle x="20" y="20" width="80" height="23" as="alternateBounds" />
          </mxGeometry>
        </mxCell>
        <mxCell id="LDGs9otjKLNxabIMayrT-233" value="" style="rounded=1;whiteSpace=wrap;html=1;fillColor=#FAE5C7;strokeColor=#0F8B8D;labelBackgroundColor=none;fontColor=#143642;" vertex="1" parent="187">
          <mxGeometry x="20.25" y="145.5" width="119.5" height="315.5" as="geometry" />
        </mxCell>
        <mxCell id="LDGs9otjKLNxabIMayrT-224" value="Model Artifactory&lt;br&gt;Repo" style="shape=datastore;whiteSpace=wrap;html=1;labelBackgroundColor=none;fillColor=#FAE5C7;strokeColor=#0F8B8D;fontColor=#143642;rounded=1;" vertex="1" parent="187">
          <mxGeometry x="50.5" y="175.5" width="60" height="60" as="geometry" />
        </mxCell>
        <mxCell id="LDGs9otjKLNxabIMayrT-228" value="Code Repo" style="shape=datastore;whiteSpace=wrap;html=1;labelBackgroundColor=none;fillColor=#FAE5C7;strokeColor=#0F8B8D;fontColor=#143642;rounded=1;" vertex="1" parent="187">
          <mxGeometry x="50" y="273.25" width="60" height="60" as="geometry" />
        </mxCell>
        <mxCell id="LDGs9otjKLNxabIMayrT-230" value="Environment Image Repo" style="shape=datastore;whiteSpace=wrap;html=1;labelBackgroundColor=none;fillColor=#FAE5C7;strokeColor=#0F8B8D;fontColor=#143642;rounded=1;" vertex="1" parent="187">
          <mxGeometry x="50.5" y="375.5" width="60" height="64.5" as="geometry" />
        </mxCell>
        <mxCell id="LDGs9otjKLNxabIMayrT-236" value="Model registry" style="rounded=1;whiteSpace=wrap;html=1;hachureGap=4;fontFamily=Architects Daughter;fontSource=https%3A%2F%2Ffonts.googleapis.com%2Fcss%3Ffamily%3DArchitects%2BDaughter;fontSize=20;labelBackgroundColor=none;fillColor=#FAE5C7;strokeColor=#0F8B8D;fontColor=#143642;" vertex="1" parent="187">
          <mxGeometry x="20.5" y="54.5" width="120" height="60" as="geometry" />
        </mxCell>
        <mxCell id="LDGs9otjKLNxabIMayrT-237" value="" style="endArrow=classic;html=1;rounded=1;hachureGap=4;fontFamily=Architects Daughter;fontSource=https%3A%2F%2Ffonts.googleapis.com%2Fcss%3Ffamily%3DArchitects%2BDaughter;fontSize=16;entryX=0.5;entryY=1;entryDx=0;entryDy=0;exitX=0.5;exitY=0;exitDx=0;exitDy=0;labelBackgroundColor=none;strokeColor=#A8201A;fontColor=default;" edge="1" parent="187" source="LDGs9otjKLNxabIMayrT-233" target="LDGs9otjKLNxabIMayrT-236">
          <mxGeometry width="50" height="50" relative="1" as="geometry">
            <mxPoint x="5.5" y="305.5" as="sourcePoint" />
            <mxPoint x="55.5" y="255.5" as="targetPoint" />
          </mxGeometry>
        </mxCell>
        <mxCell id="LDGs9otjKLNxabIMayrT-239" value="Pipeline" style="label;whiteSpace=wrap;html=1;image=img/clipart/Gear_128x128.png;hachureGap=4;fontFamily=Architects Daughter;fontSource=https%3A%2F%2Ffonts.googleapis.com%2Fcss%3Ffamily%3DArchitects%2BDaughter;fontSize=20;labelBackgroundColor=none;fillColor=#FAE5C7;strokeColor=#0F8B8D;fontColor=#143642;" vertex="1" parent="187">
          <mxGeometry x="20.5" y="455.5" width="119.5" height="29.5" as="geometry" />
        </mxCell>
        <mxCell id="LDGs9otjKLNxabIMayrT-242" value="" style="endArrow=classic;html=1;rounded=1;hachureGap=4;fontFamily=Architects Daughter;fontSource=https%3A%2F%2Ffonts.googleapis.com%2Fcss%3Ffamily%3DArchitects%2BDaughter;fontSize=16;entryX=0.5;entryY=0;entryDx=0;entryDy=0;labelBackgroundColor=none;strokeColor=#A8201A;fontColor=default;" edge="1" parent="187" target="LDGs9otjKLNxabIMayrT-240">
          <mxGeometry width="50" height="50" relative="1" as="geometry">
            <mxPoint x="85.5" y="55.5" as="sourcePoint" />
            <mxPoint x="135.5" y="5.5" as="targetPoint" />
            <Array as="points">
              <mxPoint x="165.5" y="35.5" />
            </Array>
          </mxGeometry>
        </mxCell>
        <mxCell id="182" value="Baseline Model Data" style="whiteSpace=wrap;strokeColor=none;fillColor=#FAE5C7;shadow=0;fontColor=#143642;fontFamily=Helvetica;fontStyle=0;html=1;fontSize=12;spacing=6;verticalAlign=middle;labelBackgroundColor=none;rounded=1;" parent="187" vertex="1">
          <mxGeometry x="20.5" y="534" width="120" height="60" as="geometry" />
        </mxCell>
        <mxCell id="LDGs9otjKLNxabIMayrT-244" value="" style="endArrow=classic;html=1;rounded=1;hachureGap=4;fontFamily=Architects Daughter;fontSource=https%3A%2F%2Ffonts.googleapis.com%2Fcss%3Ffamily%3DArchitects%2BDaughter;fontSize=16;exitX=0.5;exitY=1;exitDx=0;exitDy=0;entryX=0.5;entryY=0;entryDx=0;entryDy=0;labelBackgroundColor=none;strokeColor=#A8201A;fontColor=default;" edge="1" parent="187" source="LDGs9otjKLNxabIMayrT-239" target="182">
          <mxGeometry width="50" height="50" relative="1" as="geometry">
            <mxPoint x="205.5" y="535.5" as="sourcePoint" />
            <mxPoint x="255.5" y="485.5" as="targetPoint" />
          </mxGeometry>
        </mxCell>
        <mxCell id="183" value="&lt;font color=&quot;#23497d&quot;&gt;Preparing Model&lt;/font&gt;" style="swimlane;whiteSpace=wrap;fillColor=none;swimlaneFillColor=#BAC8D3;fontColor=#143642;fontFamily=Tahoma;html=1;strokeColor=none;opacity=25;labelBackgroundColor=none;rounded=1;" parent="1" vertex="1">
          <mxGeometry x="430" y="89" width="160" height="650" as="geometry">
            <mxRectangle x="20" y="20" width="80" height="23" as="alternateBounds" />
          </mxGeometry>
        </mxCell>
        <mxCell id="184" value="Feature Engineering" style="whiteSpace=wrap;shadow=0;fontColor=#143642;fontFamily=Helvetica;fontStyle=0;html=1;fontSize=12;plain-purple;strokeColor=none;fillColor=#FAE5C7;spacing=6;verticalAlign=middle;labelBackgroundColor=none;rounded=1;" parent="183" vertex="1">
          <mxGeometry x="20" y="487.5" width="120" height="60" as="geometry" />
        </mxCell>
        <mxCell id="186" value="" style="edgeStyle=segmentEdgeStyle;strokeColor=#A8201A;strokeWidth=3;html=1;endArrow=block;endFill=1;labelBackgroundColor=none;fontColor=default;" parent="183" source="184" edge="1">
          <mxGeometry width="100" height="100" relative="1" as="geometry">
            <mxPoint x="-10" y="100" as="sourcePoint" />
            <mxPoint x="80" y="345" as="targetPoint" />
          </mxGeometry>
        </mxCell>
        <mxCell id="LDGs9otjKLNxabIMayrT-220" value="Model Training&lt;br&gt;Parameter Tuning" style="rounded=1;whiteSpace=wrap;html=1;labelBackgroundColor=none;fillColor=#FAE5C7;strokeColor=#0F8B8D;fontColor=#143642;" vertex="1" parent="183">
          <mxGeometry x="20.5" y="286.5" width="120" height="60" as="geometry" />
        </mxCell>
        <mxCell id="LDGs9otjKLNxabIMayrT-221" value="Model Evaluation" style="rounded=1;whiteSpace=wrap;html=1;labelBackgroundColor=none;fillColor=#FAE5C7;strokeColor=#0F8B8D;fontColor=#143642;" vertex="1" parent="183">
          <mxGeometry x="20.5" y="162.5" width="120" height="60" as="geometry" />
        </mxCell>
        <mxCell id="LDGs9otjKLNxabIMayrT-222" value="" style="edgeStyle=segmentEdgeStyle;strokeColor=#A8201A;strokeWidth=3;html=1;endArrow=block;endFill=1;entryX=0.5;entryY=1;entryDx=0;entryDy=0;labelBackgroundColor=none;fontColor=default;" edge="1" parent="183" target="LDGs9otjKLNxabIMayrT-221">
          <mxGeometry width="100" height="100" relative="1" as="geometry">
            <mxPoint x="79.5" y="286.5" as="sourcePoint" />
            <mxPoint x="79.5" y="143.5" as="targetPoint" />
          </mxGeometry>
        </mxCell>
        <mxCell id="193" value="&lt;font color=&quot;#23497d&quot;&gt;Prod Ready Model&lt;/font&gt;" style="swimlane;whiteSpace=wrap;fillColor=none;swimlaneFillColor=#BAC8D3;fontColor=#143642;fontFamily=Tahoma;html=1;strokeColor=none;opacity=25;labelBackgroundColor=none;rounded=1;" parent="1" vertex="1">
          <mxGeometry x="750.5" y="86" width="160" height="650" as="geometry">
            <mxRectangle x="20" y="20" width="80" height="23" as="alternateBounds" />
          </mxGeometry>
        </mxCell>
        <mxCell id="195" value="Runtime Model&lt;br&gt;Performance Data" style="whiteSpace=wrap;strokeColor=none;fillColor=#FAE5C7;shadow=0;fontColor=#143642;fontFamily=Helvetica;fontStyle=0;html=1;fontSize=12;spacing=6;verticalAlign=middle;labelBackgroundColor=none;rounded=1;" parent="193" vertex="1">
          <mxGeometry x="20" y="335.5" width="120" height="60" as="geometry" />
        </mxCell>
        <mxCell id="LDGs9otjKLNxabIMayrT-240" value="" style="rounded=1;whiteSpace=wrap;html=1;hachureGap=4;fontFamily=Architects Daughter;fontSource=https%3A%2F%2Ffonts.googleapis.com%2Fcss%3Ffamily%3DArchitects%2BDaughter;fontSize=20;labelBackgroundColor=none;fillColor=#FAE5C7;strokeColor=#0F8B8D;fontColor=#143642;" vertex="1" parent="193">
          <mxGeometry x="20" y="65.5" width="120" height="225.5" as="geometry" />
        </mxCell>
        <mxCell id="194" value="Model Access Endpoints" style="whiteSpace=wrap;strokeColor=none;fillColor=#FAE5C7;shadow=0;fontColor=#143642;fontFamily=Helvetica;fontStyle=0;html=1;fontSize=12;spacing=6;verticalAlign=middle;labelBackgroundColor=none;rounded=1;" parent="193" vertex="1">
          <mxGeometry x="35" y="159" width="90" height="50" as="geometry" />
        </mxCell>
        <mxCell id="LDGs9otjKLNxabIMayrT-241" value="Deployment&amp;nbsp;&lt;br&gt;Environment" style="text;html=1;strokeColor=none;fillColor=none;align=center;verticalAlign=middle;whiteSpace=wrap;rounded=1;fontSize=20;fontFamily=Architects Daughter;labelBackgroundColor=none;fontColor=#143642;" vertex="1" parent="193">
          <mxGeometry x="50" y="75.5" width="60" height="30" as="geometry" />
        </mxCell>
        <mxCell id="LDGs9otjKLNxabIMayrT-245" value="" style="endArrow=classic;html=1;rounded=1;hachureGap=4;fontFamily=Architects Daughter;fontSource=https%3A%2F%2Ffonts.googleapis.com%2Fcss%3Ffamily%3DArchitects%2BDaughter;fontSize=16;exitX=0.5;exitY=1;exitDx=0;exitDy=0;labelBackgroundColor=none;strokeColor=#A8201A;fontColor=default;" edge="1" parent="193" source="LDGs9otjKLNxabIMayrT-240" target="195">
          <mxGeometry width="50" height="50" relative="1" as="geometry">
            <mxPoint x="55" y="495.5" as="sourcePoint" />
            <mxPoint x="105" y="445.5" as="targetPoint" />
          </mxGeometry>
        </mxCell>
        <mxCell id="LDGs9otjKLNxabIMayrT-246" value="Model Monitor" style="label;whiteSpace=wrap;html=1;align=center;verticalAlign=bottom;spacingLeft=0;spacingBottom=4;imageAlign=center;imageVerticalAlign=top;image=img/clipart/Gear_128x128.png;hachureGap=4;fontFamily=Architects Daughter;fontSource=https%3A%2F%2Ffonts.googleapis.com%2Fcss%3Ffamily%3DArchitects%2BDaughter;fontSize=20;labelBackgroundColor=none;fillColor=#FAE5C7;strokeColor=#0F8B8D;fontColor=#143642;" vertex="1" parent="193">
          <mxGeometry x="20" y="535.5" width="120" height="80" as="geometry" />
        </mxCell>
        <mxCell id="LDGs9otjKLNxabIMayrT-248" value="" style="endArrow=classic;html=1;rounded=1;hachureGap=4;fontFamily=Architects Daughter;fontSource=https%3A%2F%2Ffonts.googleapis.com%2Fcss%3Ffamily%3DArchitects%2BDaughter;fontSize=16;exitX=0.5;exitY=1;exitDx=0;exitDy=0;entryX=0.5;entryY=0;entryDx=0;entryDy=0;labelBackgroundColor=none;strokeColor=#A8201A;fontColor=default;" edge="1" parent="193" source="195" target="LDGs9otjKLNxabIMayrT-246">
          <mxGeometry width="50" height="50" relative="1" as="geometry">
            <mxPoint x="185" y="435.5" as="sourcePoint" />
            <mxPoint x="235" y="385.5" as="targetPoint" />
          </mxGeometry>
        </mxCell>
        <mxCell id="LDGs9otjKLNxabIMayrT-218" value="" style="endArrow=classic;html=1;rounded=1;exitX=1;exitY=0.5;exitDx=0;exitDy=0;entryX=0;entryY=0.5;entryDx=0;entryDy=0;strokeWidth=3;labelBackgroundColor=none;strokeColor=#A8201A;fontColor=default;" edge="1" parent="1" target="184">
          <mxGeometry width="50" height="50" relative="1" as="geometry">
            <mxPoint x="412.25" y="606.5" as="sourcePoint" />
            <mxPoint x="607.75" y="361.5" as="targetPoint" />
          </mxGeometry>
        </mxCell>
        <mxCell id="LDGs9otjKLNxabIMayrT-234" value="" style="endArrow=classic;html=1;rounded=1;hachureGap=4;fontFamily=Architects Daughter;fontSource=https%3A%2F%2Ffonts.googleapis.com%2Fcss%3Ffamily%3DArchitects%2BDaughter;fontSize=16;entryX=-0.006;entryY=0.162;entryDx=0;entryDy=0;entryPerimeter=0;exitX=1;exitY=0.5;exitDx=0;exitDy=0;labelBackgroundColor=none;strokeColor=#A8201A;fontColor=default;" edge="1" parent="1" source="LDGs9otjKLNxabIMayrT-221" target="LDGs9otjKLNxabIMayrT-233">
          <mxGeometry width="50" height="50" relative="1" as="geometry">
            <mxPoint x="575.5" y="281.5" as="sourcePoint" />
            <mxPoint x="645.5" y="381.5" as="targetPoint" />
          </mxGeometry>
        </mxCell>
        <mxCell id="LDGs9otjKLNxabIMayrT-249" value="" style="endArrow=classic;html=1;rounded=1;hachureGap=4;fontFamily=Architects Daughter;fontSource=https%3A%2F%2Ffonts.googleapis.com%2Fcss%3Ffamily%3DArchitects%2BDaughter;fontSize=16;exitX=0;exitY=0.25;exitDx=0;exitDy=0;entryX=1;entryY=0.5;entryDx=0;entryDy=0;strokeColor=#A8201A;labelBackgroundColor=none;fontColor=default;" edge="1" parent="1" source="LDGs9otjKLNxabIMayrT-246" target="LDGs9otjKLNxabIMayrT-239">
          <mxGeometry width="50" height="50" relative="1" as="geometry">
            <mxPoint x="775.5" y="551.5" as="sourcePoint" />
            <mxPoint x="825.5" y="501.5" as="targetPoint" />
          </mxGeometry>
        </mxCell>
        <mxCell id="LDGs9otjKLNxabIMayrT-250" value="Trigger" style="edgeLabel;html=1;align=center;verticalAlign=middle;resizable=0;points=[];fontSize=20;fontFamily=Architects Daughter;labelBackgroundColor=none;fontColor=#143642;rounded=1;" vertex="1" connectable="0" parent="LDGs9otjKLNxabIMayrT-249">
          <mxGeometry x="-0.0321" y="-1" relative="1" as="geometry">
            <mxPoint as="offset" />
          </mxGeometry>
        </mxCell>
        <mxCell id="LDGs9otjKLNxabIMayrT-251" value="" style="endArrow=classic;html=1;rounded=1;hachureGap=4;fontFamily=Architects Daughter;fontSource=https%3A%2F%2Ffonts.googleapis.com%2Fcss%3Ffamily%3DArchitects%2BDaughter;fontSize=16;exitX=1;exitY=0.75;exitDx=0;exitDy=0;labelBackgroundColor=none;strokeColor=#A8201A;fontColor=default;" edge="1" parent="1" source="182" target="LDGs9otjKLNxabIMayrT-246">
          <mxGeometry width="50" height="50" relative="1" as="geometry">
            <mxPoint x="775.5" y="631.5" as="sourcePoint" />
            <mxPoint x="825.5" y="581.5" as="targetPoint" />
          </mxGeometry>
        </mxCell>
        <mxCell id="LDGs9otjKLNxabIMayrT-252" value="Consumer" style="shape=umlActor;verticalLabelPosition=bottom;verticalAlign=top;html=1;outlineConnect=0;hachureGap=4;fontFamily=Architects Daughter;fontSource=https%3A%2F%2Ffonts.googleapis.com%2Fcss%3Ffamily%3DArchitects%2BDaughter;fontSize=20;labelBackgroundColor=none;fillColor=#FAE5C7;strokeColor=#0F8B8D;fontColor=#143642;rounded=1;" vertex="1" parent="1">
          <mxGeometry x="965.5" y="240.5" width="30" height="60" as="geometry" />
        </mxCell>
        <mxCell id="LDGs9otjKLNxabIMayrT-255" value="" style="endArrow=classic;html=1;rounded=1;hachureGap=4;fontFamily=Architects Daughter;fontSource=https%3A%2F%2Ffonts.googleapis.com%2Fcss%3Ffamily%3DArchitects%2BDaughter;fontSize=16;entryX=1;entryY=0.5;entryDx=0;entryDy=0;labelBackgroundColor=none;strokeColor=#A8201A;fontColor=default;" edge="1" parent="1" target="194">
          <mxGeometry width="50" height="50" relative="1" as="geometry">
            <mxPoint x="955.5" y="261.5" as="sourcePoint" />
            <mxPoint x="825.5" y="321.5" as="targetPoint" />
          </mxGeometry>
        </mxCell>
      </root>
    </mxGraphModel>
  </diagram>
</mxfile>
